<svg width="101" height="101" viewBox="0 0 101 101" fill="none" xmlns="http://www.w3.org/2000/svg">
<g filter="url(#filter0_dd_206_218)">
<circle cx="50.5" cy="50.5" r="20.5" fill="url(#paint0_radial_206_218)"/>
<circle cx="50.5" cy="50.5" r="20" stroke="url(#paint1_linear_206_218)" style="mix-blend-mode:overlay"/>
</g>
<path fill-rule="evenodd" clip-rule="evenodd" d="M36.0754 22.5662L37.2725 25.7193C37.3085 25.814 37.3923 25.8749 37.4936 25.8798L40.8622 26.044C41.0914 26.0552 41.1851 26.3438 41.0064 26.4875L38.3776 28.6004C38.2986 28.6639 38.2666 28.7624 38.2931 28.8602L39.178 32.1147C39.2382 32.336 38.9927 32.5144 38.8008 32.3887L35.9789 30.5415C35.894 30.486 35.7905 30.486 35.7057 30.5415L32.8839 32.3887C32.6919 32.5144 32.4464 32.336 32.5066 32.1147L33.3914 28.8601C33.418 28.7623 33.3861 28.6638 33.3071 28.6003L30.6783 26.4874C30.4995 26.3437 30.5933 26.0551 30.8224 26.0439L34.1911 25.8797C34.2923 25.8748 34.3761 25.8139 34.4121 25.7192L35.6093 22.5661C35.69 22.353 35.9945 22.353 36.0754 22.5662ZM52.3628 49.2703C56.5942 49.2703 60.0245 52.7006 60.0245 56.932C60.0245 61.1634 56.5942 64.5937 52.3628 64.5937C48.1314 64.5937 44.7011 61.1634 44.7011 56.932C44.7011 52.7006 48.1314 49.2703 52.3628 49.2703ZM51.3565 57.6078L49.6445 55.8959C49.2009 55.4522 48.4811 55.4522 48.0374 55.8959C47.5937 56.3396 47.5937 57.0593 48.0374 57.503L50.5553 60.0209C50.999 60.4646 51.7187 60.4646 52.1624 60.0209C53.6801 58.5032 55.1807 56.9684 56.6913 55.4437C57.1318 54.9991 57.1304 54.2817 56.6864 53.8401C56.2423 53.3985 55.5229 53.3997 55.0819 53.8451L51.3565 57.6078ZM23.2331 60.4813L44.0161 60.4812C43.552 59.3911 43.295 58.1916 43.295 56.932C43.295 55.0164 43.8895 53.2398 44.9034 51.7758C42.4959 49.6293 39.3218 48.3245 35.8425 48.3245C29.1449 48.3245 23.5768 53.158 22.4347 59.5269C22.3449 60.0272 22.7249 60.4813 23.2331 60.4813ZM35.8425 33.6702C39.6464 33.6702 42.7301 36.7539 42.7301 40.5578C42.7301 44.3617 39.6464 47.4455 35.8425 47.4455C32.0385 47.4455 28.9548 44.3617 28.9548 40.5578C28.9547 36.7539 32.0385 33.6702 35.8425 33.6702ZM47.6795 27.0293C47.5985 26.816 47.2941 26.816 47.2131 27.0293L46.016 30.1823C45.98 30.2772 45.8962 30.338 45.7949 30.3429L42.4262 30.5071C42.1971 30.5183 42.1033 30.8069 42.2821 30.9506L44.9109 33.0635C44.9899 33.127 45.0219 33.2255 44.9953 33.3233L44.1105 36.5779C44.0503 36.7993 44.2958 36.9776 44.4877 36.8519L47.3095 35.0047C47.3944 34.9492 47.4979 34.9492 47.5827 35.0047L50.4046 36.8519C50.5966 36.9776 50.842 36.7992 50.7818 36.5779L49.897 33.3234C49.8703 33.2256 49.9023 33.1271 49.9813 33.0636L52.6101 30.9507C52.7889 30.807 52.6951 30.5183 52.466 30.5072L49.0973 30.343C48.9961 30.3381 48.9123 30.2772 48.8763 30.1824L47.6795 27.0293ZM24.4712 27.0293C24.3903 26.816 24.0858 26.816 24.005 27.0293L22.8078 30.1823C22.7719 30.2772 22.688 30.338 22.5868 30.3429L19.2181 30.5071C18.989 30.5183 18.8952 30.8069 19.074 30.9506L21.7028 33.0635C21.7818 33.127 21.8138 33.2255 21.7872 33.3233L20.9024 36.5779C20.8422 36.7993 21.0876 36.9776 21.2796 36.8519L24.1014 35.0047C24.1862 34.9492 24.2898 34.9492 24.3746 35.0047L27.1965 36.8519C27.3884 36.9776 27.6339 36.7992 27.5737 36.5779L26.6889 33.3234C26.6623 33.2256 26.6943 33.1271 26.7733 33.0636L29.4021 30.9507C29.5809 30.807 29.4871 30.5183 29.2579 30.5072L25.8893 30.343C25.788 30.3381 25.7043 30.2772 25.6682 30.1824L24.4712 27.0293Z" fill="white"/>
<defs>
<filter id="filter0_dd_206_218" x="0" y="0" width="101" height="101" filterUnits="userSpaceOnUse" color-interpolation-filters="sRGB">
<feFlood flood-opacity="0" result="BackgroundImageFix"/>
<feColorMatrix in="SourceAlpha" type="matrix" values="0 0 0 0 0 0 0 0 0 0 0 0 0 0 0 0 0 0 127 0" result="hardAlpha"/>
<feOffset dy="4"/>
<feGaussianBlur stdDeviation="2"/>
<feComposite in2="hardAlpha" operator="out"/>
<feColorMatrix type="matrix" values="0 0 0 0 0 0 0 0 0 0 0 0 0 0 0 0 0 0 0.25 0"/>
<feBlend mode="normal" in2="BackgroundImageFix" result="effect1_dropShadow_206_218"/>
<feColorMatrix in="SourceAlpha" type="matrix" values="0 0 0 0 0 0 0 0 0 0 0 0 0 0 0 0 0 0 127 0" result="hardAlpha"/>
<feOffset/>
<feGaussianBlur stdDeviation="15"/>
<feComposite in2="hardAlpha" operator="out"/>
<feColorMatrix type="matrix" values="0 0 0 0 0.462745 0 0 0 0 0.239216 0 0 0 0 0.690196 0 0 0 1 0"/>
<feBlend mode="normal" in2="effect1_dropShadow_206_218" result="effect2_dropShadow_206_218"/>
<feBlend mode="normal" in="SourceGraphic" in2="effect2_dropShadow_206_218" result="shape"/>
</filter>
<radialGradient id="paint0_radial_206_218" cx="0" cy="0" r="1" gradientUnits="userSpaceOnUse" gradientTransform="translate(61.4404 57.3333) rotate(-92.637) scale(103.891 46.5924)">
<stop stop-color="#602EA6"/>
<stop offset="1" stop-color="#C977D6"/>
</radialGradient>
<linearGradient id="paint1_linear_206_218" x1="45.5031" y1="58.4383" x2="63.8221" y2="32.4917" gradientUnits="userSpaceOnUse">
<stop stop-color="white"/>
<stop offset="1" stop-color="white" stop-opacity="0.5"/>
</linearGradient>
</defs>
</svg>
