<svg width="101" height="101" viewBox="0 0 101 101" fill="none" xmlns="http://www.w3.org/2000/svg">
<g filter="url(#filter0_dd_206_216)">
<circle cx="50.5" cy="50.5" r="20.5" fill="url(#paint0_radial_206_216)"/>
<circle cx="50.5" cy="50.5" r="20" stroke="url(#paint1_linear_206_216)" style="mix-blend-mode:overlay"/>
</g>
<path d="M59.5503 59.2352C59.5503 59.2352 54.5557 50.6511 53.6598 49.1115C54.6791 48.8006 55.7649 48.526 56.2161 47.7469C56.968 46.4489 55.6296 44.3195 55.981 42.9282C56.3431 41.4963 58.4802 40.2572 58.4802 38.8017C58.4802 37.3836 56.2707 35.7269 55.9084 34.3034C55.5546 32.9123 56.889 30.7806 56.1346 29.4841C55.3803 28.1875 52.8678 28.2941 51.8335 27.2988C50.7693 26.2746 50.7726 23.7688 49.489 23.0824C48.2002 22.3935 46.1056 23.7858 44.6746 23.456C43.2599 23.13 41.9961 21 40.5184 21C39.0189 21 36.6337 23.4161 36.2597 23.5031C34.8294 23.8355 32.7322 22.4467 31.4447 23.1385C30.1624 23.8272 30.1703 26.3333 29.108 27.3592C28.0754 28.3562 25.5628 28.2543 24.8107 29.5524C24.0588 30.8502 25.3972 32.979 25.0459 34.3711C24.6936 35.7667 22.482 37.1807 22.482 38.7947C22.482 40.2504 24.6245 41.4856 24.9888 42.9168C25.3428 44.3078 24.0084 46.4393 24.7627 47.7362C25.1734 48.4422 26.1051 48.732 27.0357 49.0106C27.1443 49.043 27.3497 49.1645 27.2105 49.3672C26.5739 50.4661 21.45 59.3093 21.45 59.3093C21.0423 60.0127 21.3733 60.6157 22.1853 60.6498L26.1599 60.8156C26.9718 60.8498 27.9904 61.4398 28.4238 62.1273L30.5447 65.4927C30.9781 66.1801 31.6658 66.1672 32.0733 65.464C32.0733 65.464 38.0074 55.2189 38.0099 55.216C38.1289 55.0769 38.2486 55.1055 38.3059 55.1541C38.9551 55.7069 39.8603 56.2584 40.6157 56.2584C41.3565 56.2584 42.0425 55.7393 42.7211 55.1603C42.7763 55.1132 42.9107 55.0168 43.009 55.217C43.0105 55.2201 48.9381 65.4091 48.9381 65.4091C49.3467 66.1115 50.0345 66.1234 50.4666 65.4351L52.5815 62.0657C53.0137 61.3778 54.0312 60.7854 54.8432 60.75L58.8173 60.5769C59.6289 60.5412 59.9589 59.9375 59.5503 59.2352ZM47.0868 50.0196C42.6924 52.5761 37.4176 52.3021 33.3887 49.7609C27.4853 45.9795 25.5428 38.1571 29.0917 32.0318C32.6811 25.8359 40.5714 23.6496 46.8232 27.0545C46.856 27.0724 46.8885 27.0909 46.9211 27.1091C46.9674 27.1348 47.0136 27.1608 47.0597 27.1871C48.9884 28.2991 50.6609 29.9129 51.8585 31.9714C55.5187 38.2629 53.3783 46.3594 47.0868 50.0196Z" fill="white"/>
<path d="M46.0819 29.0377C46.0637 29.0271 46.0452 29.0173 46.027 29.0068C42.6873 27.074 38.4308 26.9327 34.8634 29.0082C29.5696 32.088 27.7682 38.9004 30.848 44.1941C31.7878 45.8096 33.0757 47.0991 34.5615 48.0246C34.6878 48.1046 34.8156 48.1833 34.9462 48.2589C40.2458 51.3292 47.0545 49.5155 50.1247 44.2162C53.1947 38.9166 51.3815 32.108 46.0819 29.0377ZM47.4077 37.7012L45.5521 39.5099C44.9774 40.07 44.6181 41.1757 44.754 41.9668L45.192 44.5207C45.3277 45.3117 44.8576 45.6533 44.1471 45.2799L41.8535 44.074C41.143 43.7005 39.9806 43.7005 39.2701 44.074L36.9766 45.2799C36.2662 45.6533 35.7959 45.3117 35.9316 44.5207L36.3697 41.9668C36.5054 41.1757 36.1461 40.07 35.5714 39.5099L33.7159 37.7012C33.1411 37.1411 33.3208 36.5883 34.115 36.4727L36.6793 36.1001C37.4735 35.9847 38.414 35.3014 38.7692 34.5817L39.916 32.2581C40.2712 31.5385 40.8525 31.5385 41.2076 32.2581L42.3545 34.5817C42.7097 35.3014 43.6501 35.9847 44.4445 36.1001L47.0087 36.4727C47.8028 36.5883 47.9824 37.1411 47.4077 37.7012Z" fill="white"/>
<defs>
<filter id="filter0_dd_206_216" x="0" y="0" width="101" height="101" filterUnits="userSpaceOnUse" color-interpolation-filters="sRGB">
<feFlood flood-opacity="0" result="BackgroundImageFix"/>
<feColorMatrix in="SourceAlpha" type="matrix" values="0 0 0 0 0 0 0 0 0 0 0 0 0 0 0 0 0 0 127 0" result="hardAlpha"/>
<feOffset dy="4"/>
<feGaussianBlur stdDeviation="2"/>
<feComposite in2="hardAlpha" operator="out"/>
<feColorMatrix type="matrix" values="0 0 0 0 0 0 0 0 0 0 0 0 0 0 0 0 0 0 0.25 0"/>
<feBlend mode="normal" in2="BackgroundImageFix" result="effect1_dropShadow_206_216"/>
<feColorMatrix in="SourceAlpha" type="matrix" values="0 0 0 0 0 0 0 0 0 0 0 0 0 0 0 0 0 0 127 0" result="hardAlpha"/>
<feOffset/>
<feGaussianBlur stdDeviation="15"/>
<feComposite in2="hardAlpha" operator="out"/>
<feColorMatrix type="matrix" values="0 0 0 0 0.462745 0 0 0 0 0.239216 0 0 0 0 0.690196 0 0 0 1 0"/>
<feBlend mode="normal" in2="effect1_dropShadow_206_216" result="effect2_dropShadow_206_216"/>
<feBlend mode="normal" in="SourceGraphic" in2="effect2_dropShadow_206_216" result="shape"/>
</filter>
<radialGradient id="paint0_radial_206_216" cx="0" cy="0" r="1" gradientUnits="userSpaceOnUse" gradientTransform="translate(61.4404 57.3333) rotate(-92.637) scale(103.891 46.5924)">
<stop stop-color="#602EA6"/>
<stop offset="1" stop-color="#C977D6"/>
</radialGradient>
<linearGradient id="paint1_linear_206_216" x1="45.5031" y1="58.4383" x2="63.8221" y2="32.4917" gradientUnits="userSpaceOnUse">
<stop stop-color="white"/>
<stop offset="1" stop-color="white" stop-opacity="0.5"/>
</linearGradient>
</defs>
</svg>
