<svg width="101" height="101" viewBox="0 0 101 101" fill="none" xmlns="http://www.w3.org/2000/svg">
<g filter="url(#filter0_dd_206_217)">
<circle cx="50.5" cy="50.5" r="20.5" fill="url(#paint0_radial_206_217)"/>
<circle cx="50.5" cy="50.5" r="20" stroke="url(#paint1_linear_206_217)" style="mix-blend-mode:overlay"/>
</g>
<g clip-path="url(#clip0_206_217)">
<path d="M36.1387 42.1816C36.8655 42.1816 37.457 42.7731 37.457 43.5C37.457 44.2269 36.8655 44.8184 36.1387 44.8184C35.4118 44.8184 34.8203 44.2269 34.8203 43.5C34.8203 42.7731 35.4118 42.1816 36.1387 42.1816Z" fill="white"/>
<path d="M37.457 37.04V39.7717C37.0448 39.6249 36.601 39.5449 36.1387 39.5449C33.9581 39.5449 32.1836 41.3194 32.1836 43.5C32.1836 45.6806 33.9581 47.4551 36.1387 47.4551C36.601 47.4551 37.0448 47.3751 37.457 47.2283V49.96C37.0255 50.0479 36.5843 50.0918 36.1387 50.0918C32.5044 50.0918 29.5469 47.1343 29.5469 43.5C29.5469 39.8657 32.5044 36.9082 36.1387 36.9082C36.5843 36.9082 37.0255 36.9521 37.457 37.04Z" fill="white"/>
<path d="M26.9102 43.5C26.9102 48.5889 31.0498 52.7285 36.1387 52.7285C36.5825 52.7285 37.0229 52.6978 37.457 52.6345V60.6387H33.502C32.7742 60.6387 32.1836 60.048 32.1836 59.3203V57.4535C31.1052 57.1468 30.0654 56.7126 29.0749 56.1562L27.7486 57.4834C27.2336 57.9984 26.3995 57.9984 25.8845 57.4834L22.1553 53.7542C21.6401 53.239 21.6421 52.4032 22.1553 51.89L23.4824 50.5629C22.9252 49.5732 22.4919 48.5335 22.1852 47.4551H20.3184C19.5906 47.4551 19 46.8645 19 46.1367V40.8633C19 40.1355 19.5906 39.5449 20.3184 39.5449H22.1852C22.4919 38.4665 22.9252 37.4268 23.4824 36.4362L22.1553 35.11C21.6421 34.5968 21.6401 33.761 22.1553 33.2458L25.8845 29.5166C26.3995 29.0016 27.2336 29.0016 27.7486 29.5166L29.0758 30.8438C30.0654 30.2865 31.1052 29.8532 32.1836 29.5465V27.6797C32.1836 26.952 32.7742 26.3613 33.502 26.3613H37.457V34.3655C37.0229 34.3022 36.5825 34.2715 36.1387 34.2715C31.0498 34.2715 26.9102 38.4111 26.9102 43.5Z" fill="white"/>
<path d="M56.0898 27.133V34.2715H63.2283L56.0898 27.133ZM44.0488 34.2715H49.498C50.2258 34.2715 50.8164 34.8621 50.8164 35.5898C50.8164 36.3176 50.2258 36.9082 49.498 36.9082H44.0488C43.3211 36.9082 42.7305 36.3176 42.7305 35.5898C42.7305 34.8621 43.3211 34.2715 44.0488 34.2715ZM57.4082 52.7285H44.0488C43.3211 52.7285 42.7305 52.1379 42.7305 51.4102C42.7305 50.6824 43.3211 50.0918 44.0488 50.0918H57.4082C58.1359 50.0918 58.7266 50.6824 58.7266 51.4102C58.7266 52.1379 58.1359 52.7285 57.4082 52.7285ZM57.4082 47.4551H44.0488C43.3211 47.4551 42.7305 46.8645 42.7305 46.1367C42.7305 45.409 43.3211 44.8184 44.0488 44.8184H57.4082C58.1359 44.8184 58.7266 45.409 58.7266 46.1367C58.7266 46.8645 58.1359 47.4551 57.4082 47.4551ZM57.4082 42.1816H44.0488C43.3211 42.1816 42.7305 41.591 42.7305 40.8633C42.7305 40.1355 43.3211 39.5449 44.0488 39.5449H57.4082C58.1359 39.5449 58.7266 40.1355 58.7266 40.8633C58.7266 41.591 58.1359 42.1816 57.4082 42.1816ZM54.7715 36.9082C54.0437 36.9082 53.4531 36.3176 53.4531 35.5898V26.3613H40.0938V60.6387H62.6816C63.4094 60.6387 64 60.048 64 59.3203V36.9082H54.7715Z" fill="white"/>
</g>
<defs>
<filter id="filter0_dd_206_217" x="0" y="0" width="101" height="101" filterUnits="userSpaceOnUse" color-interpolation-filters="sRGB">
<feFlood flood-opacity="0" result="BackgroundImageFix"/>
<feColorMatrix in="SourceAlpha" type="matrix" values="0 0 0 0 0 0 0 0 0 0 0 0 0 0 0 0 0 0 127 0" result="hardAlpha"/>
<feOffset dy="4"/>
<feGaussianBlur stdDeviation="2"/>
<feComposite in2="hardAlpha" operator="out"/>
<feColorMatrix type="matrix" values="0 0 0 0 0 0 0 0 0 0 0 0 0 0 0 0 0 0 0.25 0"/>
<feBlend mode="normal" in2="BackgroundImageFix" result="effect1_dropShadow_206_217"/>
<feColorMatrix in="SourceAlpha" type="matrix" values="0 0 0 0 0 0 0 0 0 0 0 0 0 0 0 0 0 0 127 0" result="hardAlpha"/>
<feOffset/>
<feGaussianBlur stdDeviation="15"/>
<feComposite in2="hardAlpha" operator="out"/>
<feColorMatrix type="matrix" values="0 0 0 0 0.462745 0 0 0 0 0.239216 0 0 0 0 0.690196 0 0 0 1 0"/>
<feBlend mode="normal" in2="effect1_dropShadow_206_217" result="effect2_dropShadow_206_217"/>
<feBlend mode="normal" in="SourceGraphic" in2="effect2_dropShadow_206_217" result="shape"/>
</filter>
<radialGradient id="paint0_radial_206_217" cx="0" cy="0" r="1" gradientUnits="userSpaceOnUse" gradientTransform="translate(61.4404 57.3333) rotate(-92.637) scale(103.891 46.5924)">
<stop stop-color="#602EA6"/>
<stop offset="1" stop-color="#C977D6"/>
</radialGradient>
<linearGradient id="paint1_linear_206_217" x1="45.5031" y1="58.4383" x2="63.8221" y2="32.4917" gradientUnits="userSpaceOnUse">
<stop stop-color="white"/>
<stop offset="1" stop-color="white" stop-opacity="0.5"/>
</linearGradient>
<clipPath id="clip0_206_217">
<rect width="45" height="45" fill="white" transform="translate(19 21)"/>
</clipPath>
</defs>
</svg>
