<svg width="600" height="204" viewBox="0 0 600 204" fill="none" xmlns="http://www.w3.org/2000/svg">
<g clip-path="url(#clip0_592_3300)">
<path d="M353.427 95.1642L339.604 75.9795H328.027V127.146H338.32V91.6509L351.822 109.239H355.032L368.534 91.6509V127.146H378.506V75.9795H366.93L353.427 95.1642ZM558.53 75.9795V85.5825H573.958V127.146H584.251V85.5612H600V75.9582H558.53V75.9795ZM419.655 75C404.826 75 392.822 86.9665 392.822 101.701C392.822 116.457 404.847 128.402 419.655 128.402C434.484 128.402 446.489 116.436 446.489 101.701C446.51 86.9665 434.484 75 419.655 75ZM419.655 118.607C410.283 118.607 402.686 111.049 402.686 101.722C402.686 92.3961 410.283 84.8372 419.655 84.8372C429.027 84.8372 436.624 92.3961 436.624 101.722C436.624 111.049 429.027 118.607 419.655 118.607ZM242.584 75C227.755 75 215.75 86.9665 215.75 101.701C215.75 116.457 227.776 128.402 242.584 128.402C257.413 128.402 269.417 116.436 269.417 101.701C269.417 86.9665 257.413 75 242.584 75ZM242.584 118.607C233.211 118.607 225.615 111.049 225.615 101.722C225.615 92.3961 233.211 84.8372 242.584 84.8372C251.956 84.8372 259.553 92.3961 259.553 101.722C259.531 111.049 251.956 118.607 242.584 118.607ZM539.828 91.3315C542.096 94.206 543.509 97.7832 543.509 101.701C543.509 111.027 535.912 118.586 526.54 118.586C524.999 118.586 523.523 118.309 522.11 117.926L516.44 126.422C519.564 127.678 522.966 128.423 526.54 128.423C541.369 128.423 553.373 116.457 553.373 101.722C553.373 94.3338 550.356 87.6479 545.499 82.8144L539.828 91.3315ZM526.54 84.8372C529.386 84.8372 532.039 85.6038 534.414 86.8387L542.674 80.4722C538.18 77.0867 532.638 75 526.561 75C511.732 75 499.728 86.9665 499.728 101.701C499.728 105.342 500.477 108.834 501.803 112.007L510.106 105.598C509.806 104.341 509.614 103.042 509.614 101.701C509.571 92.3961 517.167 84.8372 526.54 84.8372ZM187.29 84.8372C192.897 84.8372 197.84 87.584 200.921 91.7574L207.918 84.7946C202.997 78.854 195.636 75 187.29 75C172.461 75 160.436 86.9665 160.436 101.701C160.436 116.436 172.461 128.423 187.29 128.423C194.972 128.423 201.841 125.166 206.742 120.034L199.766 113.093C196.663 116.457 192.255 118.607 187.29 118.607C177.918 118.607 170.322 111.049 170.322 101.722C170.322 92.3961 177.918 84.8372 187.29 84.8372ZM471.418 117.564V75.9795H461.125V127.146H494.399L489.414 117.543H471.418V117.564ZM296.315 96.1649C291.95 94.8448 289.211 91.7999 290.216 88.3079C291.051 85.3908 295.288 84.0281 299.653 85.2631C302.456 86.0509 304.639 87.7117 305.623 89.5855L312.15 83.0699C309.475 78.9179 304.682 75.8517 298.968 75.1491C289.403 73.978 280.138 80.2167 279.795 88.2654C278.875 109.792 307.164 103.341 305.388 115.03C304.874 118.458 299.589 119.928 294.56 118.501C291.244 117.564 288.676 115.563 287.584 113.348L280.566 120.204C283.626 124.399 288.997 127.508 295.395 128.296C306.094 129.594 315.317 123.824 316.066 115.371C317.071 104.107 306.929 99.3801 296.315 96.1649Z" fill="white"/>
<path d="M92.3367 54.4416C68.2429 54.4416 48.3104 72.2366 44.9924 95.3793H7.10352C10.5877 51.4174 47.4117 16.8232 92.3367 16.8232C114.731 16.8232 135.113 25.4226 150.355 39.4865L125.615 67.9031C117.009 59.5742 105.276 54.4416 92.3367 54.4416Z" fill="#0078FF"/>
<path d="M92.3362 149.957C65.9217 149.957 44.5119 128.579 44.5119 102.203H6.83838C6.83838 149.355 45.1213 187.582 92.3424 187.582C114.737 187.582 135.119 178.988 150.361 164.918L125.621 136.502V136.496C117.009 144.825 105.276 149.957 92.3362 149.957Z" fill="#FFC003"/>
<path fill-rule="evenodd" clip-rule="evenodd" d="M0 102.202C0 51.2819 41.3423 10 92.3369 10C118.936 10 142.907 21.2302 159.755 39.1973C160.075 39.5415 160.081 40.0763 159.774 40.4328L126.92 78.168C126.532 78.6167 125.831 78.586 125.48 78.1065C118.025 67.8967 105.96 61.2643 92.3369 61.2643C69.6959 61.2643 51.3393 79.594 51.3393 102.202H0ZM44.9927 95.379C48.3107 72.2363 68.2432 54.4413 92.3369 54.4413C105.276 54.4413 117.009 59.5739 125.615 67.9028L150.355 39.4862C135.114 25.4223 114.732 16.8229 92.3369 16.8229C47.4119 16.8229 10.588 51.4171 7.10379 95.379H44.9927ZM126.92 126.236L159.774 163.971C160.081 164.328 160.075 164.856 159.755 165.201C142.907 183.174 118.936 194.404 92.3369 194.404C41.3423 194.404 0 153.122 0 102.202H6.83909C6.83909 149.354 45.122 187.581 92.3431 187.581C114.738 187.581 135.12 178.988 150.361 164.918L125.621 136.501V136.495C117.009 144.824 105.276 149.957 92.3369 149.957C65.9224 149.957 44.5126 128.578 44.5126 102.202H51.3393C51.3393 124.81 69.6959 143.14 92.3369 143.14C105.96 143.14 118.025 136.507 125.48 126.298C125.824 125.824 126.532 125.787 126.92 126.236Z" fill="white"/>
</g>
<defs>
<clipPath id="clip0_592_3300">
<rect width="600" height="204" fill="white"/>
</clipPath>
</defs>
</svg>
