<svg width="90" height="90" viewBox="0 0 90 90" fill="none" xmlns="http://www.w3.org/2000/svg">
<path d="M44.6868 89.3736C69.3666 89.3736 89.3736 69.3666 89.3736 44.6868C89.3736 20.007 69.3666 0 44.6868 0C20.007 0 0 20.007 0 44.6868C0 69.3666 20.007 89.3736 44.6868 89.3736Z" fill="url(#paint0_radial_101_289)"/>
<path d="M44.6868 89.3736C69.3666 89.3736 89.3736 69.3666 89.3736 44.6868C89.3736 20.007 69.3666 0 44.6868 0C20.007 0 0 20.007 0 44.6868C0 69.3666 20.007 89.3736 44.6868 89.3736Z" fill="url(#paint1_radial_101_289)"/>
<path d="M44.6868 89.3736C69.3666 89.3736 89.3736 69.3666 89.3736 44.6868C89.3736 20.007 69.3666 0 44.6868 0C20.007 0 0 20.007 0 44.6868C0 69.3666 20.007 89.3736 44.6868 89.3736Z" fill="url(#paint2_radial_101_289)"/>
<g clip-path="url(#clip0_101_289)">
<path d="M56.8594 44.6094C57.3318 44.6094 57.7849 44.4217 58.1189 44.0877C58.453 43.7536 58.6406 43.3005 58.6406 42.8281V19.6719C58.6406 19.1995 58.453 18.7464 58.1189 18.4123C57.7849 18.0783 57.3318 17.8906 56.8594 17.8906H33.7031C33.2307 17.8906 32.7776 18.0783 32.4436 18.4123C32.1095 18.7464 31.9219 19.1995 31.9219 19.6719V36.5938" stroke="white" stroke-opacity="0.5" stroke-width="2" stroke-linejoin="round"/>
<path d="M47.0625 44.6094H69.3281C69.8005 44.6094 70.2536 44.797 70.5877 45.1311C70.9217 45.4651 71.1094 45.9182 71.1094 46.3906V69.5469C71.1094 70.0193 70.9217 70.4724 70.5877 70.8064C70.2536 71.1405 69.8005 71.3281 69.3281 71.3281H46.1719C45.6995 71.3281 45.2464 71.1405 44.9123 70.8064C44.5783 70.4724 44.3906 70.0193 44.3906 69.5469V65.0938" stroke="white" stroke-opacity="0.5" stroke-width="2" stroke-linejoin="round"/>
<path d="M34.1284 34.4822L16.4571 52.1535C15.7059 52.9048 15.7059 54.1228 16.4571 54.8741L34.1284 72.5453C34.8797 73.2966 36.0977 73.2966 36.849 72.5453L54.5202 54.8741C55.2715 54.1228 55.2715 52.9048 54.5202 52.1535L36.849 34.4822C36.0977 33.731 34.8797 33.731 34.1284 34.4822Z" stroke="white" stroke-opacity="0.5" stroke-width="2" stroke-linejoin="round"/>
<path d="M37.3369 47.2278C38.3059 47.2278 39.0914 46.4423 39.0914 45.4733C39.0914 44.5043 38.3059 43.7188 37.3369 43.7188C36.3679 43.7188 35.5823 44.5043 35.5823 45.4733C35.5823 46.4423 36.3679 47.2278 37.3369 47.2278Z" stroke="white" stroke-opacity="0.5" stroke-width="2" stroke-linejoin="round"/>
<path d="M32.3939 52.1797C33.3629 52.1797 34.1484 51.3942 34.1484 50.4252C34.1484 49.4562 33.3629 48.6706 32.3939 48.6706C31.4249 48.6706 30.6394 49.4562 30.6394 50.4252C30.6394 51.3942 31.4249 52.1797 32.3939 52.1797Z" stroke="white" stroke-opacity="0.5" stroke-width="2" stroke-linejoin="round"/>
<path d="M27.442 57.1226C28.411 57.1226 29.1966 56.3371 29.1966 55.3681C29.1966 54.3991 28.411 53.6136 27.442 53.6136C26.473 53.6136 25.6875 54.3991 25.6875 55.3681C25.6875 56.3371 26.473 57.1226 27.442 57.1226Z" stroke="white" stroke-opacity="0.5" stroke-width="2" stroke-linejoin="round"/>
<path d="M43.5267 53.4177C44.4957 53.4177 45.2812 52.6321 45.2812 51.6631C45.2812 50.6941 44.4957 49.9086 43.5267 49.9086C42.5577 49.9086 41.7722 50.6941 41.7722 51.6631C41.7722 52.6321 42.5577 53.4177 43.5267 53.4177Z" stroke="white" stroke-opacity="0.5" stroke-width="2" stroke-linejoin="round"/>
<path d="M38.5748 58.3606C39.5438 58.3606 40.3294 57.5751 40.3294 56.6061C40.3294 55.6371 39.5438 54.8516 38.5748 54.8516C37.6058 54.8516 36.8203 55.6371 36.8203 56.6061C36.8203 57.5751 37.6058 58.3606 38.5748 58.3606Z" stroke="white" stroke-opacity="0.5" stroke-width="2" stroke-linejoin="round"/>
<path d="M33.6319 63.3125C34.6009 63.3125 35.3864 62.527 35.3864 61.558C35.3864 60.589 34.6009 59.8034 33.6319 59.8034C32.6629 59.8034 31.8773 60.589 31.8773 61.558C31.8773 62.527 32.6629 63.3125 33.6319 63.3125Z" stroke="white" stroke-opacity="0.5" stroke-width="2" stroke-linejoin="round"/>
<path d="M39.0469 26.7969C40.0306 26.7969 40.8281 25.9994 40.8281 25.0156C40.8281 24.0319 40.0306 23.2344 39.0469 23.2344C38.0631 23.2344 37.2656 24.0319 37.2656 25.0156C37.2656 25.9994 38.0631 26.7969 39.0469 26.7969Z" stroke="white" stroke-opacity="0.5" stroke-width="2" stroke-linejoin="round"/>
<path d="M45.2812 33.0312C46.265 33.0312 47.0625 32.2338 47.0625 31.25C47.0625 30.2662 46.265 29.4688 45.2812 29.4688C44.2975 29.4688 43.5 30.2662 43.5 31.25C43.5 32.2338 44.2975 33.0312 45.2812 33.0312Z" stroke="white" stroke-opacity="0.5" stroke-width="2" stroke-linejoin="round"/>
<path d="M51.5156 39.2656C52.4994 39.2656 53.2969 38.4681 53.2969 37.4844C53.2969 36.5006 52.4994 35.7031 51.5156 35.7031C50.5319 35.7031 49.7344 36.5006 49.7344 37.4844C49.7344 38.4681 50.5319 39.2656 51.5156 39.2656Z" stroke="white" stroke-opacity="0.5" stroke-width="2" stroke-linejoin="round"/>
<path d="M63.9844 53.5156C64.9681 53.5156 65.7656 52.7181 65.7656 51.7344C65.7656 50.7506 64.9681 49.9531 63.9844 49.9531C63.0006 49.9531 62.2031 50.7506 62.2031 51.7344C62.2031 52.7181 63.0006 53.5156 63.9844 53.5156Z" stroke="white" stroke-opacity="0.5" stroke-width="2" stroke-linejoin="round"/>
<path d="M63.9844 65.9844C64.9681 65.9844 65.7656 65.1869 65.7656 64.2031C65.7656 63.2194 64.9681 62.4219 63.9844 62.4219C63.0006 62.4219 62.2031 63.2194 62.2031 64.2031C62.2031 65.1869 63.0006 65.9844 63.9844 65.9844Z" stroke="white" stroke-opacity="0.5" stroke-width="2" stroke-linejoin="round"/>
<path d="M51.5156 65.9844C52.4994 65.9844 53.2969 65.1869 53.2969 64.2031C53.2969 63.2194 52.4994 62.4219 51.5156 62.4219C50.5319 62.4219 49.7344 63.2194 49.7344 64.2031C49.7344 65.1869 50.5319 65.9844 51.5156 65.9844Z" stroke="white" stroke-opacity="0.5" stroke-width="2" stroke-linejoin="round"/>
<path d="M57.75 59.75C58.7338 59.75 59.5312 58.9525 59.5312 57.9688C59.5312 56.985 58.7338 56.1875 57.75 56.1875C56.7662 56.1875 55.9688 56.985 55.9688 57.9688C55.9688 58.9525 56.7662 59.75 57.75 59.75Z" stroke="white" stroke-opacity="0.5" stroke-width="2" stroke-linejoin="round"/>
<path d="M28.3594 32.1406H22.125" stroke="white" stroke-opacity="0.5" stroke-width="2" stroke-linejoin="round"/>
<path d="M28.3594 29.4688L24.7969 25.9062" stroke="white" stroke-opacity="0.5" stroke-width="2" stroke-linejoin="round"/>
<path d="M28.3594 34.8125L24.7969 38.375" stroke="white" stroke-opacity="0.5" stroke-width="2" stroke-linejoin="round"/>
</g>
<defs>
<radialGradient id="paint0_radial_101_289" cx="0" cy="0" r="1" gradientUnits="userSpaceOnUse" gradientTransform="translate(70.3411 14.3991) scale(134.08)">
<stop offset="0.47" stop-color="#D67EF9" stop-opacity="0"/>
<stop offset="0.49" stop-color="#D67EF9" stop-opacity="0.01"/>
<stop offset="0.51" stop-color="#D77DF8" stop-opacity="0.06"/>
<stop offset="0.53" stop-color="#D97DF6" stop-opacity="0.13"/>
<stop offset="0.55" stop-color="#DB7BF4" stop-opacity="0.23"/>
<stop offset="0.57" stop-color="#DE7AF2" stop-opacity="0.36"/>
<stop offset="0.58" stop-color="#E278EF" stop-opacity="0.53"/>
<stop offset="0.6" stop-color="#E676EB" stop-opacity="0.72"/>
<stop offset="0.61" stop-color="#EB73E6" stop-opacity="0.96"/>
<stop offset="1" stop-color="#ED72E4"/>
</radialGradient>
<radialGradient id="paint1_radial_101_289" cx="0" cy="0" r="1" gradientUnits="userSpaceOnUse" gradientTransform="translate(70.3411 14.3991) scale(134.08)">
<stop offset="0.47" stop-color="#D67EF9" stop-opacity="0"/>
<stop offset="0.49" stop-color="#D67EF9" stop-opacity="0.01"/>
<stop offset="0.51" stop-color="#D77DF8" stop-opacity="0.06"/>
<stop offset="0.53" stop-color="#D97DF6" stop-opacity="0.13"/>
<stop offset="0.55" stop-color="#DB7BF4" stop-opacity="0.23"/>
<stop offset="0.57" stop-color="#DE7AF2" stop-opacity="0.36"/>
<stop offset="0.58" stop-color="#E278EF" stop-opacity="0.53"/>
<stop offset="0.6" stop-color="#E676EB" stop-opacity="0.72"/>
<stop offset="0.61" stop-color="#EB73E6" stop-opacity="0.96"/>
<stop offset="1" stop-color="#ED72E4"/>
</radialGradient>
<radialGradient id="paint2_radial_101_289" cx="0" cy="0" r="1" gradientUnits="userSpaceOnUse" gradientTransform="translate(68.5352 59.5824) rotate(-92.637) scale(226.467 101.564)">
<stop stop-color="#602EA6"/>
<stop offset="1" stop-color="#C977D6"/>
</radialGradient>
<clipPath id="clip0_101_289">
<rect width="57" height="57" fill="white" transform="translate(15 17)"/>
</clipPath>
</defs>
</svg>
